
<svg
    xmlns="http://www.w3.org/2000/svg"
    width="500"
    height="370"
    viewBox="0 0 500 370"
>

<style>

.label {
    font: 600 14px Arial;
    fill: #8b949e;
}

.percentage {
    font: 600 13px Arial;
    fill: #8b949e;
}

.card {
    fill: #0d1117;
    stroke: #30363d;
    stroke-width: 1;
}

.title {
    font: 700 22px Arial;
    fill: #ffffff;
}

</style>


<rect
    width="500"
    height="370"
    rx="15"
    class="card"
/>


<text
    x="30"
    y="40"
    class="title"
>
Most Used Languages
</text>



<text
    x="30"
    y="85"
    class="label"
>
HTML
</text>

<rect
    x="120"
    y="72"
    width="320"
    height="10"
    rx="5"
    fill="#21262d"
/>

<rect
    x="120"
    y="72"
    width="145"
    height="10"
    rx="5"
    fill="#8b5cf6"
/>

<text
    x="455"
    y="85"
    class="percentage"
>
45.4%
</text>

<text
    x="30"
    y="130"
    class="label"
>
Java
</text>

<rect
    x="120"
    y="117"
    width="320"
    height="10"
    rx="5"
    fill="#21262d"
/>

<rect
    x="120"
    y="117"
    width="72"
    height="10"
    rx="5"
    fill="#8b5cf6"
/>

<text
    x="455"
    y="130"
    class="percentage"
>
22.5%
</text>

<text
    x="30"
    y="175"
    class="label"
>
JavaScript
</text>

<rect
    x="120"
    y="162"
    width="320"
    height="10"
    rx="5"
    fill="#21262d"
/>

<rect
    x="120"
    y="162"
    width="51"
    height="10"
    rx="5"
    fill="#8b5cf6"
/>

<text
    x="455"
    y="175"
    class="percentage"
>
16.1%
</text>

<text
    x="30"
    y="220"
    class="label"
>
CSS
</text>

<rect
    x="120"
    y="207"
    width="320"
    height="10"
    rx="5"
    fill="#21262d"
/>

<rect
    x="120"
    y="207"
    width="26"
    height="10"
    rx="5"
    fill="#8b5cf6"
/>

<text
    x="455"
    y="220"
    class="percentage"
>
8.2%
</text>

<text
    x="30"
    y="265"
    class="label"
>
Python
</text>

<rect
    x="120"
    y="252"
    width="320"
    height="10"
    rx="5"
    fill="#21262d"
/>

<rect
    x="120"
    y="252"
    width="21"
    height="10"
    rx="5"
    fill="#8b5cf6"
/>

<text
    x="455"
    y="265"
    class="percentage"
>
6.8%
</text>

<text
    x="30"
    y="310"
    class="label"
>
C#
</text>

<rect
    x="120"
    y="297"
    width="320"
    height="10"
    rx="5"
    fill="#21262d"
/>

<rect
    x="120"
    y="297"
    width="2"
    height="10"
    rx="5"
    fill="#8b5cf6"
/>

<text
    x="455"
    y="310"
    class="percentage"
>
0.9%
</text>



</svg>
